<?xml version="1.0" encoding="UTF-8" standalone="no"?>
<!-- Created with Inkscape (http://www.inkscape.org/) -->

<svg
   width="210mm"
   height="297mm"
   viewBox="0 0 210 297"
   version="1.1"
   id="svg1"
   inkscape:version="1.4.3 (0d15f75, 2025-12-25)"
   sodipodi:docname="grass.svg"
   xmlns:inkscape="http://www.inkscape.org/namespaces/inkscape"
   xmlns:sodipodi="http://sodipodi.sourceforge.net/DTD/sodipodi-0.dtd"
   xmlns="http://www.w3.org/2000/svg"
   xmlns:svg="http://www.w3.org/2000/svg">
  <sodipodi:namedview
     id="namedview1"
     pagecolor="#ffffff"
     bordercolor="#666666"
     borderopacity="1.0"
     inkscape:showpageshadow="2"
     inkscape:pageopacity="0.0"
     inkscape:pagecheckerboard="0"
     inkscape:deskcolor="#d1d1d1"
     inkscape:document-units="mm"
     inkscape:zoom="0.70377385"
     inkscape:cx="396.43417"
     inkscape:cy="561.25984"
     inkscape:window-width="1920"
     inkscape:window-height="992"
     inkscape:window-x="-8"
     inkscape:window-y="-8"
     inkscape:window-maximized="1"
     inkscape:current-layer="layer1" />
  <defs
     id="defs1" />
  <g
     inkscape:label="Layer 1"
     inkscape:groupmode="layer"
     id="layer1">
    <path
       d="m 49.175497,232.38841 c 1.640788,1.22661 0.684003,-1.31991 -2.604806,-6.88098 -4.652512,-7.86697 -5.362754,-10.92534 -7.028342,-29.52945 -1.863922,-21.41605 -4.888743,-30.24557 -11.438692,-32.96268 -2.559614,-1.23241 -2.510045,-0.52942 0.377719,4.3535 2.246035,3.79786 4.512507,12.89286 6.293265,26.11961 3.059859,20.34257 8.133865,34.18482 14.400865,38.9 z"
       id="path184"
       style="stroke-width:0.157581" />
    <path
       d="m 17.805442,163.24722 c 4.156627,0.83713 4.292273,0.75691 5.400807,-3.55987 0.942138,-3.66954 0.65193,-4.77942 -2.012678,-6.49894 -3.60823,-2.07683 -7.671499,-0.58923 -8.72451,3.51199 -0.942161,3.66948 0.53233,5.5436 5.336493,6.547 z"
       id="path185"
       style="stroke-width:0.157581" />
    <path
       d="m 61.212173,230.76225 c 0.999047,0.1416 0.147273,-1.91785 -1.944129,-4.52561 -5.361293,-6.8985 -8.154257,-22.45589 -8.489723,-46.24045 -0.224594,-24.21628 -2.337915,-36.14796 -7.687567,-44.88413 l -3.986051,-6.43028 1.987878,6.14739 c 1.086548,3.38509 3.115248,20.12678 4.521244,37.05367 1.405934,16.92689 3.64468,34.6428 4.885826,39.21795 2.642721,9.4217 8.307394,19.6192 10.71241,19.66155 z"
       id="path187"
       style="stroke-width:0.157581" />
    <path
       d="m 73.210881,226.59542 c 0.678205,-0.40112 -0.21709,-4.08223 -2.056408,-8.12072 -4.634976,-10.62338 -5.515883,-25.11466 -3.231955,-52.82833 2.173119,-27.28194 1.327223,-47.28619 -2.289811,-56.49785 -3.672396,-8.99574 -6.312284,-10.36372 -3.959678,-2.05204 2.402059,9.01472 3.099212,26.91008 1.987864,57.22565 -0.92173,25.99266 0.304864,41.3779 3.681183,50.18264 1.357834,3.22467 2.925683,7.42358 3.481326,9.29184 0.771736,1.92362 1.844933,3.11967 2.387479,2.79881 z"
       id="path199"
       style="stroke-width:0.157581" />
    <path
       d="M 85.801779,222.81073 C 83.027809,208.52363 82.88344,201.46906 84.427949,141.239 85.176105,112.78593 83.485752,93.830282 78.713662,79.260292 75.028137,68.075386 68.727551,55.873909 63.946737,51.195131 c -5.076901,-4.869825 -4.261621,-1.324248 2.180377,9.878169 11.01421,18.933808 14.952157,45.71399 14.52776,99.78932 -0.258185,36.40173 0.821144,53.70486 3.802199,60.9126 1.78371,4.25429 1.94416,4.52557 1.344706,1.03551 z"
       id="path202"
       style="stroke-width:0.157581" />
    <path
       d="m 31.439131,127.17367 c 3.392364,2.0214 7.541679,-0.24925 8.298715,-4.54146 1.039914,-6.29038 -9.00599,-7.48924 -11.125131,-1.47603 -1.1828,3.2626 -0.917365,4.02098 2.82651,6.01763 z"
       id="path203"
       style="stroke-width:0.157581" />
    <path
       d="m 101.61878,221.695 c -0.20413,-1.89311 -1.48322,-9.00892 -2.897966,-16.04455 -3.144408,-15.5326 -3.522171,-36.91215 -1.140481,-67.24666 2.068071,-27.7691 1.026755,-42.531613 -4.493581,-62.700689 -4.64952,-16.839383 -4.754581,-17.326495 -6.653447,-16.203479 -0.813819,0.481305 -0.634429,2.022866 0.247912,3.514845 2.165806,3.662208 6.918957,33.988007 6.98462,44.933753 0.05092,4.72979 -0.282753,19.02413 -0.660695,31.69673 -0.859024,28.88479 -0.28588,45.02265 2.260593,61.09199 1.792466,11.38908 7.460025,29.64027 6.353045,20.95806 z"
       id="path205"
       style="stroke-width:0.157581" />
    <path
       d="m 111.37885,216.8383 c 0.54255,-0.32072 0.4973,-5.96948 -0.16483,-12.35169 -0.52651,-6.46245 0.9217,-25.99267 3.08607,-43.38336 2.16434,-17.39068 4.09389,-36.10713 4.07343,-41.40421 0.35288,-13.0241 -2.97672,-29.179467 -7.59274,-38.532556 -2.72148,-5.530475 -3.40112,-9.156188 -2.56979,-12.393999 0.94215,-3.669443 0.57172,-4.91503 -1.79684,-6.443459 -3.39237,-2.021437 -7.511088,-0.318041 -8.508674,3.567421 -0.886718,3.453605 1.575153,7.30686 4.683294,7.29949 2.0535,0.067 3.01607,1.69473 5.8557,9.901441 4.69772,13.515585 5.87179,37.170342 3.23053,65.827632 -1.24697,13.36974 -2.54209,30.06323 -2.8294,37.00698 -0.67964,13.4003 0.77009,31.94902 2.53334,30.90622 z"
       id="path210"
       style="stroke-width:0.157581" />
    <path
       d="m 123.55701,214.21304 c -0.41006,-7.81292 1.96596,-20.20258 8.53051,-45.32162 9.74832,-37.07117 10.51546,-47.22785 4.89163,-63.85725 -4.45704,-13.10865 -6.55433,-14.797529 -4.33019,-3.29757 4.37396,21.9455 3.57618,32.66952 -5.00682,69.23459 -5.80617,24.85362 -7.83922,47.10971 -4.95148,51.99262 0.64171,1.08509 1.072,-2.83083 0.86635,-8.75077 z"
       id="path213"
       style="stroke-width:0.157581" />
    <path
       d="m 55.830399,99.384119 c 5.075476,0.843031 8.187785,-4.109921 5.158569,-7.99382 -2.116398,-2.959122 -3.250898,-3.020452 -6.641801,-1.015096 -3.119649,1.844951 -3.803656,3.164867 -2.79149,5.495545 0.610911,1.652474 2.628136,3.205649 4.274722,3.513371 z"
       id="path215"
       style="stroke-width:0.157581" />
    <path
       d="m 136.66414,217.46355 c 1.49641,-5.82801 6.01178,-18.93372 10.10277,-29.04233 13.148,-31.94173 16.18744,-50.9484 10.81741,-64.98165 -1.64809,-4.33456 -1.55621,-6.03661 0.47832,-7.23981 3.93352,-2.32626 2.35252,-8.71433 -2.55666,-10.20488 -3.10215,-0.91151 -4.13181,-0.48563 -5.85133,2.17894 -2.02144,3.39237 -0.58923,7.67154 2.86442,8.5583 3.31799,0.96694 3.94662,16.88892 1.36222,32.33111 -1.23679,7.50524 -6.07744,25.01407 -10.56803,38.47127 -8.18049,24.24398 -11.33951,36.54757 -9.81541,39.12464 0.40112,0.6782 1.8056,-3.4478 3.16629,-9.19559 z"
       id="path216"
       style="stroke-width:0.157581" />
    <path
       d="m 144.42609,222.47077 c 1.49055,-4.90918 7.75757,-17.22 13.55056,-27.23669 13.71244,-22.93867 17.80342,-33.04728 17.923,-43.37031 0.14428,-9.97148 -1.25139,-15.73678 -3.1503,-14.61376 -0.81382,0.4813 -0.93045,1.83186 -0.20861,3.05257 2.40644,4.06909 -6.64183,33.03705 -15.28174,48.76512 -9.92775,18.50347 -15.4174,31.81921 -15.61863,37.97974 -0.0482,3.32384 0.63586,2.00397 2.78563,-4.57667 z"
       id="path217"
       style="stroke-width:0.157581" />
    <path
       d="m 153.07332,223.70178 c 1.72533,-3.58341 7.71665,-10.78825 14.48543,-16.98813 6.14593,-6.01468 13.13631,-13.07805 15.34299,-15.84765 3.87072,-5.21837 7.61458,-20.24782 5.68945,-23.5031 -0.72194,-1.2207 0.20279,-2.13373 2.4779,-2.93004 4.57524,-1.24117 5.63407,-6.26117 2.24751,-9.20144 -2.57859,-2.5027 -7.61025,-1.7239 -9.22476,1.42784 -0.62862,1.10407 -0.23942,3.6199 0.96404,5.65443 4.7327,8.00257 -3.67239,25.05641 -21.27167,42.97065 -9.35743,9.5617 -15.00895,18.57937 -14.08869,22.61197 0.2899,1.11001 1.78795,-0.69152 3.3778,-4.19453 z"
       id="path221"
       style="stroke-width:0.157581" />
    <path
       d="m 164.45513,225.77323 c 2.04623,-3.04091 8.59908,-9.29627 14.7086,-13.82479 12.13871,-9.19263 16.14514,-14.49128 17.27691,-22.48362 0.76857,-6.12989 -0.89699,-7.70799 -2.57859,-2.5027 -2.23,6.44493 -6.75409,12.41588 -16.975,21.75584 -10.16548,9.12412 -17.93175,19.20937 -16.64829,21.37955 0.40113,0.67821 2.3058,-1.36364 4.21637,-4.32428 z"
       id="path222"
       style="stroke-width:0.157581" />
    <path
       d="m 52.747223,48.664694 c 5.816338,3.334072 11.246197,-4.820198 6.194052,-9.338481 -3.250898,-3.020453 -7.474614,-1.804124 -8.798875,2.457493 -1.459907,4.341841 -1.139052,4.884387 2.604823,6.880988 z"
       id="path227"
       style="stroke-width:0.157581" />
    <path
       d="m 82.374395,56.041595 c 1.184257,0.764237 3.539681,0.103631 5.142528,-1.210521 2.416576,-1.795503 2.53334,-3.145883 0.608164,-6.401203 -2.647111,-4.476026 -7.000611,-4.098218 -8.787225,0.619868 -1.182827,3.262601 -0.251038,5.457576 3.036533,6.991856 z"
       id="path230"
       style="stroke-width:0.157581" />
    <path
       d="m 198.81205,182.02082 c 4.21208,0.6213 6.64626,-3.93057 4.15955,-8.13528 -2.48666,-4.20476 -7.64817,-4.26452 -9.13291,-0.27427 -0.579,1.80703 -0.48564,4.13181 0.3167,5.48817 0.80216,1.35637 2.79438,2.55814 4.65684,2.92129 z"
       id="path242"
       style="stroke-width:0.157581" />
    <path
       d="m 129.15453,90.255625 c 4.32871,-0.729216 6.83722,-4.22673 5.55965,-7.31566 -1.62326,-3.983018 -6.61852,-4.690436 -9.63902,-1.439493 -2.69374,2.874654 0.45366,9.434787 4.07937,8.755153 z"
       id="path243"
       style="stroke-width:0.157581" />
    <path
       d="m 171.68762,134.21642 c 4.99521,0.70733 7.42353,-2.92566 4.77642,-7.40169 -1.6845,-2.84834 -3.16482,-3.80367 -5.08857,-3.03211 -3.1692,1.142 -5.25188,5.66904 -3.72782,8.24611 0.56153,0.94948 2.39334,1.87997 4.03997,2.18769 z"
       id="path249"
       style="stroke-width:0.157581" />
  </g>
</svg>
