<?xml version='1.0' encoding='utf-8'?>
<svg xmlns="http://www.w3.org/2000/svg" clip-rule="evenodd" stroke-linecap="round" stroke-linejoin="round" stroke-miterlimit="10" version="1.1" viewBox="0 0 250 250"> <clipPath id="a"> <rect width="250" height="250"/> </clipPath> <g clip-path="url(#a)"> <path d="m1.7764e-15 125c0-69.031 55.964-125 125-125 69.041 0 125 55.966 125 125 0 69.042-55.961 125-125 125-69.034 1e-3 -125-55.96-125-125z" fill="#91eafc"/> <path d="m25 125c0-55.224 44.772-99.997 99.998-99.997 55.233 0 100 44.772 100 99.997 0 55.234-44.769 100-100 100-55.226 1e-3 -99.998-44.768-99.998-100z" fill="#42c2ed"/> <path d="M50 124.998C50 83.5796 83.5788 50 124.998 50C166.423 50 200 83.5786 200 124.998C200 166.422 166.423 200 124.998 200C83.5788 200 50 166.423 50 124.998Z" fill="#0496d3"/> <path d="m75 125c0-27.613 22.386-49.999 50-49.999 27.615 0 50 22.386 50 49.999 0 27.616-22.385 50.001-50 50.001-27.614 0-50-22.385-50-50.001z" fill="#2368b0"/> <path d="m100 125c0-13.807 11.193-25 25-25s25 11.193 25 25-11.193 25-25 25-25-11.193-25-25z" fill="#003e53"/> </g> </svg>